<?xml version="1.0" standalone="no"?>
<!DOCTYPE svg PUBLIC "-//W3C//DTD SVG 20010904//EN"
 "http://www.w3.org/TR/2001/REC-SVG-20010904/DTD/svg10.dtd">
<svg version="1.0" xmlns="http://www.w3.org/2000/svg"
 width="700.000000pt" height="700.000000pt" viewBox="0 0 700.000000 700.000000"
 preserveAspectRatio="xMidYMid meet">
<metadata>
Created by potrace 1.14, written by Peter Selinger 2001-2017
</metadata>
<g transform="translate(0.000000,700.000000) scale(0.100000,-0.100000)"
fill="#000000" stroke="none">
<path d="M3460 6007 c-33 -11 -41 -25 -145 -233 -142 -286 -438 -888 -440
-894 -7 -33 -228 -460 -237 -461 -18 -1 -45 -4 -103 -13 -27 -4 -66 -10 -85
-12 -19 -3 -46 -7 -60 -10 -14 -2 -77 -11 -140 -19 -124 -17 -161 -23 -200
-30 -14 -2 -41 -6 -60 -9 -19 -3 -84 -12 -145 -21 -60 -9 -126 -18 -145 -21
-19 -2 -48 -6 -65 -9 -16 -3 -48 -7 -70 -10 -22 -4 -81 -13 -131 -20 -51 -8
-114 -17 -140 -20 -27 -3 -60 -8 -74 -10 -31 -6 -71 -12 -130 -20 -25 -4 -61
-9 -80 -11 -84 -12 -125 -42 -134 -96 -9 -58 -62 -2 912 -956 l339 -332 -13
-78 c-6 -42 -15 -93 -18 -112 -4 -19 -11 -62 -17 -95 -6 -33 -12 -71 -15 -85
-2 -14 -11 -68 -20 -120 -8 -52 -17 -108 -20 -125 -3 -16 -7 -37 -9 -45 -2 -8
-6 -33 -10 -55 -3 -22 -12 -76 -20 -120 -8 -44 -17 -95 -20 -112 -3 -18 -7
-48 -10 -65 -3 -18 -8 -44 -10 -58 -12 -70 -16 -94 -35 -205 -12 -66 -24 -133
-26 -150 -3 -16 -12 -67 -20 -113 -26 -147 -29 -199 -9 -228 36 -56 102 -61
178 -16 18 11 91 50 162 87 72 37 162 84 200 105 60 32 782 414 1023 541 l82
43 113 -58 c61 -32 135 -71 162 -86 28 -15 95 -51 150 -80 165 -87 255 -134
355 -187 52 -28 133 -71 180 -96 47 -24 114 -60 150 -79 36 -19 115 -61 175
-93 61 -32 138 -73 172 -91 34 -18 75 -35 90 -37 55 -8 113 43 113 100 0 27
-23 167 -55 348 -9 50 -18 102 -20 116 -2 14 -19 117 -39 230 -19 112 -38 224
-41 249 -3 25 -8 52 -10 60 -5 15 -57 318 -80 460 -7 45 -35 204 -39 227 -4
17 63 88 351 370 196 191 478 468 626 614 l270 266 -1 41 c-3 74 -39 104 -141
117 -30 4 -61 8 -70 10 -25 4 -92 14 -141 20 -25 3 -52 8 -60 10 -8 2 -40 7
-70 10 -30 3 -62 8 -70 10 -8 2 -37 7 -65 10 -27 3 -75 10 -105 15 -30 5 -75
12 -100 15 -25 3 -56 8 -70 10 -14 2 -41 6 -60 9 -59 8 -260 37 -278 40 -9 2
-42 7 -72 11 -30 4 -64 9 -75 11 -11 2 -42 6 -70 9 -27 3 -57 8 -65 10 -8 2
-35 7 -60 10 -25 2 -54 7 -65 9 -12 2 -47 7 -79 11 l-58 8 -135 276 c-75 152
-175 357 -223 456 -284 584 -411 835 -427 843 -34 17 -68 20 -103 9z"/>
</g>
</svg>
